<?xml version="1.0" standalone="no"?>
<!DOCTYPE svg PUBLIC "-//W3C//DTD SVG 20010904//EN"
 "http://www.w3.org/TR/2001/REC-SVG-20010904/DTD/svg10.dtd">
<svg version="1.0" xmlns="http://www.w3.org/2000/svg"
 width="1303.000000pt" height="898.000000pt" viewBox="0 0 1303.000000 898.000000"
 preserveAspectRatio="xMidYMid meet">

<g transform="translate(0.000000,898.000000) scale(0.100000,-0.100000)"
fill="#000000" stroke="none">
<path d="M0 4490 l0 -4490 6515 0 6515 0 0 4490 0 4490 -6515 0 -6515 0 0
-4490z m6939 604 c194 -55 362 -230 401 -421 18 -83 8 -245 -18 -318 -28 -77
-102 -185 -161 -235 -101 -87 -241 -140 -373 -140 -257 0 -488 177 -553 426
-46 176 5 381 127 518 146 164 367 229 577 170z"/>
<path d="M6742 4718 c-63 -21 -123 -112 -122 -188 1 -14 9 -39 18 -57 73 -136
276 -94 322 66 7 26 5 36 -11 52 -15 15 -24 17 -39 9 -28 -15 -30 -13 -30 28
0 72 -64 113 -138 90z m90 -35 c11 -10 18 -30 18 -52 0 -53 12 -65 54 -58 43
7 46 -4 16 -62 -70 -139 -254 -126 -268 18 -4 41 0 58 21 94 40 67 118 97 159
60z"/>
<path d="M6741 4667 c-16 -16 -14 -34 5 -41 21 -8 34 1 34 24 0 22 -23 33 -39
17z"/>
<path d="M6680 4605 c-15 -18 -5 -35 20 -35 10 0 22 5 25 10 7 11 -12 40 -25
40 -4 0 -13 -7 -20 -15z"/>
<path d="M6670 4525 c-15 -18 -5 -35 20 -35 10 0 22 5 25 10 7 11 -12 40 -25
40 -4 0 -13 -7 -20 -15z"/>
<path d="M6815 4514 c-19 -20 -16 -43 8 -58 20 -13 50 2 55 26 3 16 -23 48
-38 48 -5 0 -16 -7 -25 -16z"/>
<path d="M6737 4483 c-11 -10 -8 -41 4 -49 6 -3 18 1 27 9 13 13 13 19 2 31
-14 17 -23 20 -33 9z"/>
</g>
</svg>
